<mxfile host="app.diagrams.net" modified="2024-05-10T08:00:19.881Z" agent="Mozilla/5.0 (Windows NT 10.0; Win64; x64) AppleWebKit/537.36 (KHTML, like Gecko) Chrome/124.0.0.0 Safari/537.36" etag="RGJS094SOIDmZUkMiJoD" version="24.3.1" type="github">
  <diagram id="R2lEEEUBdFMjLlhIrx00" name="Page-1">
    <mxGraphModel dx="1959" dy="558" grid="1" gridSize="10" guides="1" tooltips="1" connect="1" arrows="1" fold="1" page="1" pageScale="1" pageWidth="850" pageHeight="1100" math="0" shadow="0" extFonts="Permanent Marker^https://fonts.googleapis.com/css?family=Permanent+Marker">
      <root>
        <mxCell id="0" />
        <mxCell id="1" parent="0" />
        <mxCell id="CGZgVdFiG2IRdjszwuet-2" value="챌린지" style="rounded=0;whiteSpace=wrap;html=1;" vertex="1" parent="1">
          <mxGeometry x="300" y="160" width="90" height="40" as="geometry" />
        </mxCell>
        <mxCell id="CGZgVdFiG2IRdjszwuet-11" style="edgeStyle=orthogonalEdgeStyle;rounded=0;orthogonalLoop=1;jettySize=auto;html=1;exitX=0;exitY=0.5;exitDx=0;exitDy=0;" edge="1" parent="1" source="CGZgVdFiG2IRdjszwuet-3" target="CGZgVdFiG2IRdjszwuet-10">
          <mxGeometry relative="1" as="geometry" />
        </mxCell>
        <mxCell id="CGZgVdFiG2IRdjszwuet-16" style="edgeStyle=orthogonalEdgeStyle;rounded=0;orthogonalLoop=1;jettySize=auto;html=1;exitX=0.25;exitY=1;exitDx=0;exitDy=0;" edge="1" parent="1" source="CGZgVdFiG2IRdjszwuet-3" target="CGZgVdFiG2IRdjszwuet-12">
          <mxGeometry relative="1" as="geometry" />
        </mxCell>
        <mxCell id="CGZgVdFiG2IRdjszwuet-17" style="edgeStyle=orthogonalEdgeStyle;rounded=0;orthogonalLoop=1;jettySize=auto;html=1;exitX=0.5;exitY=1;exitDx=0;exitDy=0;" edge="1" parent="1" source="CGZgVdFiG2IRdjszwuet-3" target="CGZgVdFiG2IRdjszwuet-13">
          <mxGeometry relative="1" as="geometry" />
        </mxCell>
        <mxCell id="CGZgVdFiG2IRdjszwuet-18" style="edgeStyle=orthogonalEdgeStyle;rounded=0;orthogonalLoop=1;jettySize=auto;html=1;exitX=0.75;exitY=1;exitDx=0;exitDy=0;entryX=0.5;entryY=0;entryDx=0;entryDy=0;" edge="1" parent="1" source="CGZgVdFiG2IRdjszwuet-3" target="CGZgVdFiG2IRdjszwuet-14">
          <mxGeometry relative="1" as="geometry" />
        </mxCell>
        <mxCell id="CGZgVdFiG2IRdjszwuet-3" value="사용자" style="rounded=0;whiteSpace=wrap;html=1;" vertex="1" parent="1">
          <mxGeometry x="-50" y="260" width="90" height="40" as="geometry" />
        </mxCell>
        <mxCell id="CGZgVdFiG2IRdjszwuet-4" style="edgeStyle=orthogonalEdgeStyle;rounded=0;orthogonalLoop=1;jettySize=auto;html=1;exitX=0.5;exitY=1;exitDx=0;exitDy=0;" edge="1" parent="1" source="CGZgVdFiG2IRdjszwuet-3" target="CGZgVdFiG2IRdjszwuet-3">
          <mxGeometry relative="1" as="geometry" />
        </mxCell>
        <mxCell id="CGZgVdFiG2IRdjszwuet-5" value="운동" style="rounded=0;whiteSpace=wrap;html=1;" vertex="1" parent="1">
          <mxGeometry x="410" y="60" width="80" height="40" as="geometry" />
        </mxCell>
        <mxCell id="CGZgVdFiG2IRdjszwuet-6" value="댓글" style="rounded=0;whiteSpace=wrap;html=1;" vertex="1" parent="1">
          <mxGeometry x="500" y="280" width="80" height="40" as="geometry" />
        </mxCell>
        <mxCell id="CGZgVdFiG2IRdjszwuet-8" value="좋아요" style="rounded=0;whiteSpace=wrap;html=1;" vertex="1" parent="1">
          <mxGeometry x="510" y="140" width="100" height="40" as="geometry" />
        </mxCell>
        <mxCell id="CGZgVdFiG2IRdjszwuet-10" value="&lt;u&gt;사용자 id&lt;/u&gt;" style="ellipse;whiteSpace=wrap;html=1;" vertex="1" parent="1">
          <mxGeometry x="-200" y="260" width="80" height="40" as="geometry" />
        </mxCell>
        <mxCell id="CGZgVdFiG2IRdjszwuet-12" value="이메일" style="ellipse;whiteSpace=wrap;html=1;" vertex="1" parent="1">
          <mxGeometry x="-240" y="340" width="80" height="40" as="geometry" />
        </mxCell>
        <mxCell id="CGZgVdFiG2IRdjszwuet-13" value="패스워드" style="ellipse;whiteSpace=wrap;html=1;" vertex="1" parent="1">
          <mxGeometry x="-140" y="390" width="80" height="40" as="geometry" />
        </mxCell>
        <mxCell id="CGZgVdFiG2IRdjszwuet-14" value="닉네임" style="ellipse;whiteSpace=wrap;html=1;" vertex="1" parent="1">
          <mxGeometry x="-30" y="390" width="80" height="40" as="geometry" />
        </mxCell>
        <mxCell id="CGZgVdFiG2IRdjszwuet-19" value="성별" style="ellipse;whiteSpace=wrap;html=1;" vertex="1" parent="1">
          <mxGeometry x="-110" y="110" width="80" height="50" as="geometry" />
        </mxCell>
        <mxCell id="CGZgVdFiG2IRdjszwuet-20" value="키" style="ellipse;whiteSpace=wrap;html=1;" vertex="1" parent="1">
          <mxGeometry x="-20" y="150" width="80" height="50" as="geometry" />
        </mxCell>
        <mxCell id="CGZgVdFiG2IRdjszwuet-22" value="골격근량" style="ellipse;whiteSpace=wrap;html=1;" vertex="1" parent="1">
          <mxGeometry x="10" y="200" width="80" height="50" as="geometry" />
        </mxCell>
        <mxCell id="CGZgVdFiG2IRdjszwuet-23" value="체지방률" style="ellipse;whiteSpace=wrap;html=1;" vertex="1" parent="1">
          <mxGeometry x="100" y="190" width="80" height="50" as="geometry" />
        </mxCell>
        <mxCell id="CGZgVdFiG2IRdjszwuet-24" value="주 운동 가능한 횟수" style="ellipse;whiteSpace=wrap;html=1;" vertex="1" parent="1">
          <mxGeometry x="80" y="250" width="90" height="50" as="geometry" />
        </mxCell>
        <mxCell id="CGZgVdFiG2IRdjszwuet-27" value="운동 목표" style="ellipse;whiteSpace=wrap;html=1;" vertex="1" parent="1">
          <mxGeometry x="160" y="330" width="90" height="50" as="geometry" />
        </mxCell>
        <mxCell id="CGZgVdFiG2IRdjszwuet-28" value="몸무게" style="ellipse;whiteSpace=wrap;html=1;" vertex="1" parent="1">
          <mxGeometry x="-220" y="170" width="70" height="40" as="geometry" />
        </mxCell>
      </root>
    </mxGraphModel>
  </diagram>
</mxfile>
